<svg width="226" height="36" viewBox="0 0 226 36" fill="none" xmlns="http://www.w3.org/2000/svg">
<path d="M210.729 7.90909L215.297 19.5682L219.557 7.90909H226L214.138 36H207.729L212.195 26.2159L204.218 7.90909H210.729Z" fill="#321E4B"/>
<path d="M190.456 7.67045C191.91 7.67045 193.16 8 194.206 8.65909C195.251 9.31818 196.024 10.2159 196.523 11.3523V7.90909H202.318V26.9318H196.523V23.4886C196.024 24.625 195.251 25.5227 194.206 26.1818C193.16 26.8409 191.91 27.1704 190.456 27.1704C188.888 27.1704 187.479 26.7841 186.229 26.0114C185.002 25.2159 184.025 24.0795 183.298 22.6023C182.593 21.125 182.241 19.3977 182.241 17.4205C182.241 15.4205 182.593 13.6932 183.298 12.2386C184.025 10.7614 185.002 9.63636 186.229 8.86364C187.479 8.06818 188.888 7.67045 190.456 7.67045ZM192.331 12.7841C191.081 12.7841 190.07 13.1932 189.297 14.0114C188.547 14.8295 188.172 15.9659 188.172 17.4205C188.172 18.875 188.547 20.0114 189.297 20.8295C190.07 21.6477 191.081 22.0568 192.331 22.0568C193.558 22.0568 194.558 21.6364 195.33 20.7955C196.126 19.9545 196.523 18.8295 196.523 17.4205C196.523 15.9886 196.126 14.8636 195.33 14.0455C194.558 13.2045 193.558 12.7841 192.331 12.7841Z" fill="#321E4B"/>
<path d="M179.205 1.70455V26.9318H173.376V1.70455H179.205Z" fill="#321E4B"/>
<path d="M170.337 16.9091C170.337 17.3864 170.281 17.9091 170.167 18.4773H156.975C157.043 19.9091 157.407 20.9432 158.066 21.5795C158.725 22.1932 159.566 22.5 160.588 22.5C161.452 22.5 162.168 22.2841 162.736 21.8523C163.304 21.4205 163.679 20.8636 163.861 20.1818H170.031C169.781 21.5227 169.235 22.7273 168.394 23.7955C167.554 24.8409 166.486 25.6704 165.19 26.2841C163.895 26.875 162.452 27.1704 160.861 27.1704C158.998 27.1704 157.339 26.7841 155.884 26.0114C154.453 25.2159 153.328 24.0795 152.51 22.6023C151.692 21.125 151.283 19.3977 151.283 17.4205C151.283 15.4205 151.68 13.6932 152.476 12.2386C153.294 10.7614 154.43 9.63636 155.884 8.86364C157.339 8.06818 158.998 7.67045 160.861 7.67045C162.747 7.67045 164.406 8.05682 165.838 8.82955C167.27 9.60227 168.372 10.6932 169.144 12.1023C169.94 13.4886 170.337 15.0909 170.337 16.9091ZM164.44 16.0227C164.463 14.7727 164.122 13.8409 163.418 13.2273C162.736 12.5909 161.884 12.2727 160.861 12.2727C159.793 12.2727 158.907 12.5909 158.202 13.2273C157.498 13.8636 157.1 14.7955 157.009 16.0227H164.44Z" fill="#321E4B"/>
<path d="M142.974 26.9318L137.759 17.8295H136.429V26.9318H130.6V2.82954H140.554C142.463 2.82954 144.076 3.15909 145.394 3.81818C146.712 4.47727 147.701 5.38636 148.36 6.54545C149.019 7.68181 149.348 8.98863 149.348 10.4659C149.348 12.2159 148.86 13.7045 147.883 14.9318C146.928 16.1591 145.531 17 143.69 17.4545L149.417 26.9318H142.974ZM136.429 13.8409H140.043C141.201 13.8409 142.054 13.5909 142.599 13.0909C143.144 12.5682 143.417 11.8068 143.417 10.8068C143.417 9.85227 143.133 9.10227 142.565 8.55681C142.02 8.01136 141.179 7.73863 140.043 7.73863H136.429V13.8409Z" fill="#321E4B"/>
<path d="M114.725 7.67045C116.179 7.67045 117.429 8 118.474 8.65909C119.52 9.31818 120.292 10.2159 120.792 11.3523V7.90909H126.587V26.9318H120.792V23.4886C120.292 24.625 119.52 25.5227 118.474 26.1818C117.429 26.8409 116.179 27.1704 114.725 27.1704C113.157 27.1704 111.748 26.7841 110.498 26.0114C109.271 25.2159 108.293 24.0795 107.566 22.6023C106.862 21.125 106.51 19.3977 106.51 17.4205C106.51 15.4205 106.862 13.6932 107.566 12.2386C108.293 10.7614 109.271 9.63636 110.498 8.86364C111.748 8.06818 113.157 7.67045 114.725 7.67045ZM116.599 12.7841C115.35 12.7841 114.338 13.1932 113.566 14.0114C112.816 14.8295 112.441 15.9659 112.441 17.4205C112.441 18.875 112.816 20.0114 113.566 20.8295C114.338 21.6477 115.35 22.0568 116.599 22.0568C117.827 22.0568 118.826 21.6364 119.599 20.7955C120.394 19.9545 120.792 18.8295 120.792 17.4205C120.792 15.9886 120.394 14.8636 119.599 14.0455C118.826 13.2045 117.827 12.7841 116.599 12.7841Z" fill="#321E4B"/>
<path d="M104.222 21.9205V26.9318H101.597C99.3702 26.9318 97.6317 26.3864 96.3819 25.2955C95.1547 24.1818 94.5412 22.3523 94.5412 19.8068V12.8182H91.9846V7.90909H94.5412V3.23864H100.37V7.90909H104.188V12.8182H100.37V19.9091C100.37 20.6591 100.518 21.1818 100.813 21.4773C101.131 21.7727 101.654 21.9205 102.381 21.9205H104.222Z" fill="#321E4B"/>
<path d="M90.4118 16.9091C90.4118 17.3864 90.355 17.9091 90.2413 18.4773H77.0495C77.1177 19.9091 77.4813 20.9432 78.1403 21.5795C78.7993 22.1932 79.6402 22.5 80.6628 22.5C81.5263 22.5 82.2422 22.2841 82.8103 21.8523C83.3784 21.4205 83.7534 20.8636 83.9352 20.1818H90.105C89.855 21.5227 89.3096 22.7273 88.4688 23.7955C87.628 24.8409 86.5599 25.6704 85.2646 26.2841C83.9693 26.875 82.5262 27.1704 80.9355 27.1704C79.072 27.1704 77.4131 26.7841 75.9587 26.0114C74.527 25.2159 73.4022 24.0795 72.5841 22.6023C71.766 21.125 71.3569 19.3977 71.3569 17.4205C71.3569 15.4205 71.7546 13.6932 72.55 12.2386C73.3681 10.7614 74.5043 9.63636 75.9587 8.86364C77.4131 8.06818 79.072 7.67045 80.9355 7.67045C82.8216 7.67045 84.4806 8.05682 85.9122 8.82955C87.3439 9.60227 88.4461 10.6932 89.2187 12.1023C90.0141 13.4886 90.4118 15.0909 90.4118 16.9091ZM84.5146 16.0227C84.5374 14.7727 84.1965 13.8409 83.492 13.2273C82.8103 12.5909 81.9581 12.2727 80.9355 12.2727C79.8674 12.2727 78.9811 12.5909 78.2767 13.2273C77.5722 13.8636 77.1745 14.7955 77.0836 16.0227H84.5146Z" fill="#321E4B"/>
<path d="M68.3202 3V26.9318H62.4913V11.9659L57.31 26.9318H52.265L47.0497 11.9318V26.9318H41.2207V3H48.345L54.8557 19.6704L61.23 3H68.3202Z" fill="#321E4B"/>
<path d="M22.4261 6.23414L28.2372 0.401948C28.9796 -0.343146 30.2503 -0.00263379 30.5207 1.01387L32.6374 8.97053C33.0596 10.5574 31.2144 11.765 29.9294 10.7428L29.0041 10.0068L24.7035 26.0584C23.7832 29.4936 20.2527 31.5321 16.8179 30.6117C13.3831 29.6913 11.3448 26.1604 12.2651 22.7252L14.7071 13.6111C15.0427 12.3583 14.2993 11.0707 13.0467 10.735C11.7941 10.3993 10.5065 11.1427 10.1709 12.3955L6.49448 26.1174C5.95265 25.6953 5.31917 25.3724 4.61405 25.1835C3.91843 24.9971 3.21803 24.9584 2.54615 25.0482L6.21975 11.3367C7.1401 7.90159 10.6706 5.86302 14.1054 6.78347C17.5402 7.70391 19.5785 11.2348 18.6582 14.6699L16.2162 23.784C15.8806 25.0368 16.624 26.3245 17.8766 26.6602C19.1292 26.9959 20.4168 26.2524 20.7524 24.9996L25.0528 8.94867L23.8853 9.12314C22.2614 9.36582 21.2672 7.39735 22.4261 6.23414Z" fill="#836EF9"/>
<path d="M2.40536 33.4273C4.13605 33.891 5.91498 32.8639 6.37871 31.133C6.84245 29.4021 5.81538 27.623 4.0847 27.1592C2.35401 26.6955 0.575085 27.7226 0.11135 29.4535C-0.352386 31.1844 0.674679 32.9635 2.40536 33.4273Z" fill="#836EF9"/>
</svg>
